<mxfile host="Electron" modified="2024-01-30T15:50:33.609Z" agent="Mozilla/5.0 (Macintosh; Intel Mac OS X 10_15_7) AppleWebKit/537.36 (KHTML, like Gecko) draw.io/23.0.2 Chrome/120.0.6099.109 Electron/28.1.0 Safari/537.36" etag="7QlCxtHzLCH_6M0uKttT" version="23.0.2" type="device">
  <diagram id="-Wx7Lv8i33PWE_hJeZmz" name="Page-1">
    <mxGraphModel dx="1453" dy="2212" grid="1" gridSize="5" guides="1" tooltips="1" connect="1" arrows="1" fold="1" page="1" pageScale="1" pageWidth="850" pageHeight="1100" math="0" shadow="0">
      <root>
        <mxCell id="0" />
        <mxCell id="1" parent="0" />
        <mxCell id="p2Ja1tfODRt-xbFQZl6X-28" value="" style="whiteSpace=wrap;html=1;dashed=1;strokeWidth=2;fillColor=none;" parent="1" vertex="1">
          <mxGeometry x="90" y="793" width="630" height="130" as="geometry" />
        </mxCell>
        <mxCell id="p2Ja1tfODRt-xbFQZl6X-25" value="" style="whiteSpace=wrap;html=1;dashed=1;strokeWidth=2;fillColor=none;" parent="1" vertex="1">
          <mxGeometry x="90" y="120" width="630" height="480" as="geometry" />
        </mxCell>
        <mxCell id="Q6ICdtqjvSAJJMZQYe2n-1" value="" style="shape=image;html=1;verticalAlign=top;verticalLabelPosition=bottom;labelBackgroundColor=#ffffff;imageAspect=0;aspect=fixed;image=https://cdn4.iconfinder.com/data/icons/cc_mono_icon_set/blacks/48x48/sat_dish.png" parent="1" vertex="1">
          <mxGeometry x="377" y="40" width="48" height="48" as="geometry" />
        </mxCell>
        <mxCell id="Q6ICdtqjvSAJJMZQYe2n-2" value="" style="endArrow=classic;html=1;entryX=0.5;entryY=0;entryDx=0;entryDy=0;" parent="1" target="Q6ICdtqjvSAJJMZQYe2n-3" edge="1">
          <mxGeometry width="50" height="50" relative="1" as="geometry">
            <mxPoint x="402" y="90" as="sourcePoint" />
            <mxPoint x="553" y="114.5" as="targetPoint" />
          </mxGeometry>
        </mxCell>
        <mxCell id="Q6ICdtqjvSAJJMZQYe2n-3" value="GPS receiver&amp;nbsp;&lt;br&gt;ntp.hcro.org&lt;br&gt;&quot;Meridian II US-OCXO&quot;" style="rounded=1;whiteSpace=wrap;html=1;fillColor=#f5f5f5;strokeColor=#666666;fontColor=#333333;" parent="1" vertex="1">
          <mxGeometry x="320" y="140" width="164" height="60" as="geometry" />
        </mxCell>
        <mxCell id="Q6ICdtqjvSAJJMZQYe2n-17" value="GPS" style="text;html=1;align=center;verticalAlign=middle;resizable=0;points=[];autosize=1;" parent="1" vertex="1">
          <mxGeometry x="405" y="90" width="40" height="20" as="geometry" />
        </mxCell>
        <mxCell id="p2Ja1tfODRt-xbFQZl6X-12" style="edgeStyle=orthogonalEdgeStyle;rounded=0;orthogonalLoop=1;jettySize=auto;html=1;exitX=0.75;exitY=0;exitDx=0;exitDy=0;entryX=0.25;entryY=0;entryDx=0;entryDy=0;strokeColor=#0000FF;" parent="1" source="CKp-XY39HgpGyfZFXXCT-1" target="p2Ja1tfODRt-xbFQZl6X-1" edge="1">
          <mxGeometry relative="1" as="geometry">
            <mxPoint x="130" y="341" as="targetPoint" />
            <Array as="points">
              <mxPoint x="195" y="241" />
              <mxPoint x="265" y="241" />
            </Array>
          </mxGeometry>
        </mxCell>
        <mxCell id="Y5n4CIadUk6yGjNhIpUX-1" style="edgeStyle=orthogonalEdgeStyle;rounded=0;orthogonalLoop=1;jettySize=auto;html=1;exitX=0.25;exitY=0;exitDx=0;exitDy=0;entryX=0;entryY=0.75;entryDx=0;entryDy=0;strokeColor=#0000FF;endArrow=none;endFill=0;startArrow=classic;startFill=1;" parent="1" source="CKp-XY39HgpGyfZFXXCT-1" target="Q6ICdtqjvSAJJMZQYe2n-3" edge="1">
          <mxGeometry relative="1" as="geometry">
            <mxPoint x="320" y="106" as="targetPoint" />
            <Array as="points">
              <mxPoint x="145" y="185" />
            </Array>
          </mxGeometry>
        </mxCell>
        <mxCell id="CKp-XY39HgpGyfZFXXCT-1" value="LO2&lt;br&gt;&quot;HP 83831B&quot;" style="rounded=1;whiteSpace=wrap;html=1;fillColor=#ffe6cc;strokeColor=#d79b00;" parent="1" vertex="1">
          <mxGeometry x="120" y="261" width="100" height="40" as="geometry" />
        </mxCell>
        <mxCell id="Y5n4CIadUk6yGjNhIpUX-8" style="edgeStyle=orthogonalEdgeStyle;rounded=0;orthogonalLoop=1;jettySize=auto;html=1;exitX=1;exitY=0.5;exitDx=0;exitDy=0;entryX=0;entryY=0.5;entryDx=0;entryDy=0;startArrow=none;startFill=0;endArrow=none;endFill=0;strokeColor=#000000;dashed=1;strokeWidth=4;" parent="1" source="CKp-XY39HgpGyfZFXXCT-3" target="p2Ja1tfODRt-xbFQZl6X-30" edge="1">
          <mxGeometry relative="1" as="geometry" />
        </mxCell>
        <mxCell id="CKp-XY39HgpGyfZFXXCT-3" value="RFSoC 21" style="rounded=1;whiteSpace=wrap;html=1;fillColor=#ffe6cc;strokeColor=#d79b00;" parent="1" vertex="1">
          <mxGeometry x="120" y="863" width="110" height="40" as="geometry" />
        </mxCell>
        <mxCell id="Q6ICdtqjvSAJJMZQYe2n-8" value="SPR-Distribution&lt;br&gt;1PPS &amp;amp;10MHz&lt;br&gt;&quot;SRS FS735/13&quot;" style="rounded=1;whiteSpace=wrap;html=1;fillColor=#dae8fc;strokeColor=#6c8ebf;points=[[0.25,0],[0.75,0],[0,0.125],[0,0.25],[0,0.375],[0,0.5],[0,0.625],[0,0.75],[0,0.875],[1,0.125],[1,0.25],[1,0.375],[1,0.5],[1,0.625],[1,0.75],[1,0.875]];" parent="1" vertex="1">
          <mxGeometry x="320" y="370" width="164" height="110" as="geometry" />
        </mxCell>
        <mxCell id="p2Ja1tfODRt-xbFQZl6X-13" style="edgeStyle=orthogonalEdgeStyle;rounded=0;orthogonalLoop=1;jettySize=auto;html=1;exitX=0.75;exitY=0;exitDx=0;exitDy=0;entryX=0.25;entryY=0;entryDx=0;entryDy=0;strokeColor=#0000FF;" parent="1" source="p2Ja1tfODRt-xbFQZl6X-1" target="p2Ja1tfODRt-xbFQZl6X-2" edge="1">
          <mxGeometry relative="1" as="geometry">
            <mxPoint x="130" y="391" as="targetPoint" />
            <Array as="points">
              <mxPoint x="315" y="241" />
              <mxPoint x="385" y="241" />
            </Array>
          </mxGeometry>
        </mxCell>
        <mxCell id="p2Ja1tfODRt-xbFQZl6X-1" value="LOA&lt;br&gt;&quot;Agilent E8257D&quot;" style="rounded=1;whiteSpace=wrap;html=1;fillColor=#ffe6cc;strokeColor=#d79b00;" parent="1" vertex="1">
          <mxGeometry x="240" y="261" width="100" height="40" as="geometry" />
        </mxCell>
        <mxCell id="p2Ja1tfODRt-xbFQZl6X-14" style="edgeStyle=orthogonalEdgeStyle;rounded=0;orthogonalLoop=1;jettySize=auto;html=1;exitX=0.75;exitY=0;exitDx=0;exitDy=0;entryX=0.25;entryY=0;entryDx=0;entryDy=0;strokeColor=#0000FF;" parent="1" source="p2Ja1tfODRt-xbFQZl6X-2" target="p2Ja1tfODRt-xbFQZl6X-3" edge="1">
          <mxGeometry relative="1" as="geometry">
            <mxPoint x="120" y="451" as="targetPoint" />
            <Array as="points">
              <mxPoint x="435" y="241" />
              <mxPoint x="505" y="241" />
            </Array>
          </mxGeometry>
        </mxCell>
        <mxCell id="p2Ja1tfODRt-xbFQZl6X-2" value="LOB&lt;br&gt;&quot;Agilent E8257D&quot;" style="rounded=1;whiteSpace=wrap;html=1;fillColor=#ffe6cc;strokeColor=#d79b00;" parent="1" vertex="1">
          <mxGeometry x="360" y="261" width="100" height="40" as="geometry" />
        </mxCell>
        <mxCell id="p2Ja1tfODRt-xbFQZl6X-15" style="edgeStyle=orthogonalEdgeStyle;rounded=0;orthogonalLoop=1;jettySize=auto;html=1;exitX=0.75;exitY=0;exitDx=0;exitDy=0;entryX=0.25;entryY=0;entryDx=0;entryDy=0;strokeColor=#0000FF;" parent="1" source="p2Ja1tfODRt-xbFQZl6X-3" target="p2Ja1tfODRt-xbFQZl6X-4" edge="1">
          <mxGeometry relative="1" as="geometry">
            <mxPoint x="120" y="491" as="targetPoint" />
            <Array as="points">
              <mxPoint x="555" y="241" />
              <mxPoint x="625" y="241" />
            </Array>
          </mxGeometry>
        </mxCell>
        <mxCell id="p2Ja1tfODRt-xbFQZl6X-3" value="LOC&lt;br&gt;&quot;Agilent E8257D&quot;" style="rounded=1;whiteSpace=wrap;html=1;fillColor=#ffe6cc;strokeColor=#d79b00;" parent="1" vertex="1">
          <mxGeometry x="480" y="261" width="100" height="40" as="geometry" />
        </mxCell>
        <mxCell id="p2Ja1tfODRt-xbFQZl6X-4" value="LOD&lt;br&gt;&quot;Agilent E8247C&quot;" style="rounded=1;whiteSpace=wrap;html=1;fillColor=#ffe6cc;strokeColor=#d79b00;" parent="1" vertex="1">
          <mxGeometry x="600" y="261" width="100" height="40" as="geometry" />
        </mxCell>
        <mxCell id="p2Ja1tfODRt-xbFQZl6X-16" value="10MHz" style="text;html=1;align=center;verticalAlign=middle;resizable=0;points=[];autosize=1;fontColor=#0000FF;" parent="1" vertex="1">
          <mxGeometry x="94" y="240" width="50" height="20" as="geometry" />
        </mxCell>
        <mxCell id="p2Ja1tfODRt-xbFQZl6X-18" value="10MHz" style="text;html=1;align=center;verticalAlign=middle;resizable=0;points=[];autosize=1;fontColor=#0000FF;" parent="1" vertex="1">
          <mxGeometry x="204" y="240" width="50" height="20" as="geometry" />
        </mxCell>
        <mxCell id="p2Ja1tfODRt-xbFQZl6X-19" value="10MHz" style="text;html=1;align=center;verticalAlign=middle;resizable=0;points=[];autosize=1;fontColor=#0000FF;" parent="1" vertex="1">
          <mxGeometry x="324" y="241" width="50" height="20" as="geometry" />
        </mxCell>
        <mxCell id="p2Ja1tfODRt-xbFQZl6X-20" value="10MHz" style="text;html=1;align=center;verticalAlign=middle;resizable=0;points=[];autosize=1;fontColor=#0000FF;" parent="1" vertex="1">
          <mxGeometry x="447" y="240" width="50" height="20" as="geometry" />
        </mxCell>
        <mxCell id="p2Ja1tfODRt-xbFQZl6X-21" value="10MHz" style="text;html=1;align=center;verticalAlign=middle;resizable=0;points=[];autosize=1;fontColor=#0000FF;" parent="1" vertex="1">
          <mxGeometry x="564" y="241" width="50" height="20" as="geometry" />
        </mxCell>
        <mxCell id="p2Ja1tfODRt-xbFQZl6X-27" value="Time Rack" style="text;html=1;align=left;verticalAlign=middle;resizable=0;points=[];autosize=1;fontSize=16;" parent="1" vertex="1">
          <mxGeometry x="90" y="100" width="90" height="20" as="geometry" />
        </mxCell>
        <mxCell id="p2Ja1tfODRt-xbFQZl6X-29" value="Analog Rack A" style="text;html=1;align=left;verticalAlign=middle;resizable=0;points=[];autosize=1;fontSize=16;" parent="1" vertex="1">
          <mxGeometry x="90" y="773" width="120" height="20" as="geometry" />
        </mxCell>
        <mxCell id="p2Ja1tfODRt-xbFQZl6X-30" value="RFSoC 14" style="rounded=1;whiteSpace=wrap;html=1;fillColor=#ffe6cc;strokeColor=#d79b00;" parent="1" vertex="1">
          <mxGeometry x="580" y="863" width="110" height="40" as="geometry" />
        </mxCell>
        <mxCell id="p2Ja1tfODRt-xbFQZl6X-33" value="10MHz" style="text;html=1;align=center;verticalAlign=middle;resizable=0;points=[];autosize=1;fontColor=#0000FF;" parent="1" vertex="1">
          <mxGeometry x="265" y="798" width="50" height="20" as="geometry" />
        </mxCell>
        <mxCell id="p2Ja1tfODRt-xbFQZl6X-61" value="HCRO Time Distribution&lt;br&gt;Alexander Pollak 30-01-2024" style="text;html=1;align=left;verticalAlign=middle;resizable=0;points=[];autosize=1;fontSize=16;" parent="1" vertex="1">
          <mxGeometry x="630" y="-7" width="225" height="55" as="geometry" />
        </mxCell>
        <mxCell id="Y5n4CIadUk6yGjNhIpUX-2" style="edgeStyle=orthogonalEdgeStyle;rounded=0;orthogonalLoop=1;jettySize=auto;html=1;exitX=0.75;exitY=0;exitDx=0;exitDy=0;fontSize=16;entryX=1;entryY=0.25;entryDx=0;entryDy=0;strokeColor=#FF0000;endArrow=none;endFill=0;startArrow=classic;startFill=1;" parent="1" source="Q6ICdtqjvSAJJMZQYe2n-8" target="Q6ICdtqjvSAJJMZQYe2n-3" edge="1">
          <mxGeometry relative="1" as="geometry">
            <mxPoint x="655" y="830" as="targetPoint" />
            <Array as="points">
              <mxPoint x="443" y="340" />
              <mxPoint x="710" y="340" />
              <mxPoint x="710" y="155" />
            </Array>
            <mxPoint x="499.5" y="265" as="sourcePoint" />
          </mxGeometry>
        </mxCell>
        <mxCell id="Y5n4CIadUk6yGjNhIpUX-3" value="Rack-Distribution&lt;br&gt;1PPS &amp;amp;10MHz&lt;br&gt;&quot;SRS FS735/13&quot;" style="rounded=1;whiteSpace=wrap;html=1;fillColor=#dae8fc;strokeColor=#6c8ebf;" parent="1" vertex="1">
          <mxGeometry x="325" y="803" width="160" height="50" as="geometry" />
        </mxCell>
        <mxCell id="Y5n4CIadUk6yGjNhIpUX-5" style="edgeStyle=orthogonalEdgeStyle;rounded=0;orthogonalLoop=1;jettySize=auto;html=1;exitX=0.25;exitY=0;exitDx=0;exitDy=0;entryX=0;entryY=0.25;entryDx=0;entryDy=0;strokeColor=#0000FF;endArrow=none;endFill=0;startArrow=classic;startFill=1;" parent="1" source="Q6ICdtqjvSAJJMZQYe2n-8" target="Q6ICdtqjvSAJJMZQYe2n-3" edge="1">
          <mxGeometry relative="1" as="geometry">
            <mxPoint x="155" y="271" as="sourcePoint" />
            <mxPoint x="330" y="195" as="targetPoint" />
            <Array as="points">
              <mxPoint x="361" y="340" />
              <mxPoint x="100" y="340" />
              <mxPoint x="100" y="155" />
            </Array>
          </mxGeometry>
        </mxCell>
        <mxCell id="Y5n4CIadUk6yGjNhIpUX-6" value="10MHz" style="text;html=1;align=center;verticalAlign=middle;resizable=0;points=[];autosize=1;fontColor=#0000FF;" parent="1" vertex="1">
          <mxGeometry x="310" y="320" width="50" height="20" as="geometry" />
        </mxCell>
        <mxCell id="Y5n4CIadUk6yGjNhIpUX-7" value="1PPS" style="text;html=1;align=center;verticalAlign=middle;resizable=0;points=[];autosize=1;fontColor=#FF0000;" parent="1" vertex="1">
          <mxGeometry x="440" y="320" width="50" height="20" as="geometry" />
        </mxCell>
        <mxCell id="Y5n4CIadUk6yGjNhIpUX-13" style="edgeStyle=orthogonalEdgeStyle;rounded=0;orthogonalLoop=1;jettySize=auto;html=1;exitX=1;exitY=0.75;exitDx=0;exitDy=0;fontSize=16;strokeColor=#FF0000;entryX=0.25;entryY=0;entryDx=0;entryDy=0;" parent="1" source="Y5n4CIadUk6yGjNhIpUX-3" target="p2Ja1tfODRt-xbFQZl6X-30" edge="1">
          <mxGeometry relative="1" as="geometry">
            <Array as="points">
              <mxPoint x="494" y="840" />
              <mxPoint x="608" y="840" />
            </Array>
            <mxPoint x="494" y="578" as="sourcePoint" />
            <mxPoint x="600" y="993" as="targetPoint" />
          </mxGeometry>
        </mxCell>
        <mxCell id="Y5n4CIadUk6yGjNhIpUX-15" style="edgeStyle=orthogonalEdgeStyle;rounded=0;orthogonalLoop=1;jettySize=auto;html=1;exitX=1;exitY=0.5;exitDx=0;exitDy=0;entryX=0.75;entryY=0;entryDx=0;entryDy=0;strokeColor=#0000FF;" parent="1" source="Y5n4CIadUk6yGjNhIpUX-3" target="p2Ja1tfODRt-xbFQZl6X-30" edge="1">
          <mxGeometry relative="1" as="geometry">
            <mxPoint x="395" y="414" as="targetPoint" />
            <Array as="points">
              <mxPoint x="663" y="828" />
              <mxPoint x="663" y="863" />
            </Array>
            <mxPoint x="325" y="414" as="sourcePoint" />
          </mxGeometry>
        </mxCell>
        <mxCell id="Y5n4CIadUk6yGjNhIpUX-16" style="edgeStyle=orthogonalEdgeStyle;rounded=0;orthogonalLoop=1;jettySize=auto;html=1;exitX=0;exitY=0.75;exitDx=0;exitDy=0;fontSize=16;strokeColor=#FF0000;entryX=0.75;entryY=0;entryDx=0;entryDy=0;" parent="1" source="Y5n4CIadUk6yGjNhIpUX-3" target="CKp-XY39HgpGyfZFXXCT-3" edge="1">
          <mxGeometry relative="1" as="geometry">
            <Array as="points">
              <mxPoint x="203" y="840" />
              <mxPoint x="203" y="853" />
            </Array>
            <mxPoint x="167.74" y="823.47" as="sourcePoint" />
            <mxPoint x="290.24" y="845.97" as="targetPoint" />
          </mxGeometry>
        </mxCell>
        <mxCell id="Y5n4CIadUk6yGjNhIpUX-17" style="edgeStyle=orthogonalEdgeStyle;rounded=0;orthogonalLoop=1;jettySize=auto;html=1;exitX=0;exitY=0.5;exitDx=0;exitDy=0;entryX=0.25;entryY=0;entryDx=0;entryDy=0;strokeColor=#0000FF;" parent="1" source="Y5n4CIadUk6yGjNhIpUX-3" target="CKp-XY39HgpGyfZFXXCT-3" edge="1">
          <mxGeometry relative="1" as="geometry">
            <mxPoint x="309.5" y="863" as="targetPoint" />
            <Array as="points">
              <mxPoint x="148" y="828" />
            </Array>
            <mxPoint x="132" y="828" as="sourcePoint" />
          </mxGeometry>
        </mxCell>
        <mxCell id="Y5n4CIadUk6yGjNhIpUX-18" style="edgeStyle=orthogonalEdgeStyle;rounded=0;orthogonalLoop=1;jettySize=auto;html=1;exitX=0;exitY=0.875;exitDx=0;exitDy=0;entryX=0;entryY=0.25;entryDx=0;entryDy=0;strokeColor=#0000FF;" parent="1" source="Q6ICdtqjvSAJJMZQYe2n-8" target="Y5n4CIadUk6yGjNhIpUX-25" edge="1">
          <mxGeometry relative="1" as="geometry">
            <mxPoint x="140.25" y="515" as="targetPoint" />
            <Array as="points">
              <mxPoint x="80" y="466" />
              <mxPoint x="80" y="653" />
              <mxPoint x="325" y="653" />
            </Array>
            <mxPoint x="317.75" y="480" as="sourcePoint" />
          </mxGeometry>
        </mxCell>
        <mxCell id="Y5n4CIadUk6yGjNhIpUX-19" value="" style="whiteSpace=wrap;html=1;dashed=1;strokeWidth=2;fillColor=none;" parent="1" vertex="1">
          <mxGeometry x="90" y="630" width="630" height="130" as="geometry" />
        </mxCell>
        <mxCell id="Y5n4CIadUk6yGjNhIpUX-22" value="Fiber Rack" style="text;html=1;align=left;verticalAlign=middle;resizable=0;points=[];autosize=1;fontSize=16;" parent="1" vertex="1">
          <mxGeometry x="90" y="610" width="90" height="20" as="geometry" />
        </mxCell>
        <mxCell id="Y5n4CIadUk6yGjNhIpUX-23" value="WR End Point 17&lt;br&gt;&quot;EQP-LEN-01&quot;" style="rounded=1;whiteSpace=wrap;html=1;fillColor=#ffe6cc;strokeColor=#d79b00;" parent="1" vertex="1">
          <mxGeometry x="580" y="700" width="110" height="40" as="geometry" />
        </mxCell>
        <mxCell id="Y5n4CIadUk6yGjNhIpUX-24" value="10MHz" style="text;html=1;align=center;verticalAlign=middle;resizable=0;points=[];autosize=1;fontColor=#0000FF;" parent="1" vertex="1">
          <mxGeometry x="265" y="636" width="50" height="20" as="geometry" />
        </mxCell>
        <mxCell id="Y5n4CIadUk6yGjNhIpUX-31" style="edgeStyle=orthogonalEdgeStyle;rounded=0;orthogonalLoop=1;jettySize=auto;html=1;exitX=0.25;exitY=1;exitDx=0;exitDy=0;entryX=1;entryY=0.25;entryDx=0;entryDy=0;startArrow=classic;startFill=1;endArrow=classic;endFill=1;strokeColor=#FF8000;strokeWidth=1;" parent="1" source="Y5n4CIadUk6yGjNhIpUX-25" target="Y5n4CIadUk6yGjNhIpUX-30" edge="1">
          <mxGeometry relative="1" as="geometry" />
        </mxCell>
        <mxCell id="Y5n4CIadUk6yGjNhIpUX-32" style="edgeStyle=orthogonalEdgeStyle;rounded=0;orthogonalLoop=1;jettySize=auto;html=1;exitX=0.75;exitY=1;exitDx=0;exitDy=0;entryX=0;entryY=0.25;entryDx=0;entryDy=0;startArrow=classic;startFill=1;endArrow=classic;endFill=1;strokeColor=#FF8000;strokeWidth=1;" parent="1" source="Y5n4CIadUk6yGjNhIpUX-25" target="Y5n4CIadUk6yGjNhIpUX-23" edge="1">
          <mxGeometry relative="1" as="geometry" />
        </mxCell>
        <mxCell id="Y5n4CIadUk6yGjNhIpUX-25" value="White Rabbit Switch&lt;br&gt;Low Jitter&lt;br&gt;&quot;EQP-WRS-LJ-01&quot;" style="rounded=1;whiteSpace=wrap;html=1;fillColor=#dae8fc;strokeColor=#6c8ebf;" parent="1" vertex="1">
          <mxGeometry x="325" y="640" width="160" height="50" as="geometry" />
        </mxCell>
        <mxCell id="Y5n4CIadUk6yGjNhIpUX-30" value="WR End Point 1&lt;br&gt;&quot;EQP-LEN-01&quot;" style="rounded=1;whiteSpace=wrap;html=1;fillColor=#ffe6cc;strokeColor=#d79b00;" parent="1" vertex="1">
          <mxGeometry x="120" y="700" width="110" height="40" as="geometry" />
        </mxCell>
        <mxCell id="Y5n4CIadUk6yGjNhIpUX-34" value="1Gbit fiber" style="text;html=1;align=center;verticalAlign=middle;resizable=0;points=[];autosize=1;fontColor=#FF8000;" parent="1" vertex="1">
          <mxGeometry x="290" y="710" width="70" height="20" as="geometry" />
        </mxCell>
        <mxCell id="Y5n4CIadUk6yGjNhIpUX-35" value="1Gbit fiber" style="text;html=1;align=center;verticalAlign=middle;resizable=0;points=[];autosize=1;fontColor=#FF8000;" parent="1" vertex="1">
          <mxGeometry x="445" y="710" width="70" height="20" as="geometry" />
        </mxCell>
        <mxCell id="Y5n4CIadUk6yGjNhIpUX-36" style="edgeStyle=orthogonalEdgeStyle;rounded=0;orthogonalLoop=1;jettySize=auto;html=1;exitX=1;exitY=0.25;exitDx=0;exitDy=0;fontSize=16;entryX=1;entryY=0.875;entryDx=0;entryDy=0;strokeColor=#FF0000;endArrow=none;endFill=0;startArrow=classic;startFill=1;" parent="1" source="Y5n4CIadUk6yGjNhIpUX-25" target="Q6ICdtqjvSAJJMZQYe2n-8" edge="1">
          <mxGeometry relative="1" as="geometry">
            <mxPoint x="791" y="370" as="targetPoint" />
            <Array as="points">
              <mxPoint x="730" y="653" />
              <mxPoint x="730" y="466" />
            </Array>
            <mxPoint x="750" y="585" as="sourcePoint" />
          </mxGeometry>
        </mxCell>
        <mxCell id="Y5n4CIadUk6yGjNhIpUX-37" value="1PPS" style="text;html=1;align=center;verticalAlign=middle;resizable=0;points=[];autosize=1;fontColor=#FF0000;" parent="1" vertex="1">
          <mxGeometry x="490" y="635" width="50" height="20" as="geometry" />
        </mxCell>
        <mxCell id="Y5n4CIadUk6yGjNhIpUX-39" style="edgeStyle=orthogonalEdgeStyle;rounded=0;orthogonalLoop=1;jettySize=auto;html=1;exitX=0;exitY=0.75;exitDx=0;exitDy=0;entryX=0;entryY=0.25;entryDx=0;entryDy=0;strokeColor=#0000FF;" parent="1" source="Q6ICdtqjvSAJJMZQYe2n-8" target="Y5n4CIadUk6yGjNhIpUX-3" edge="1">
          <mxGeometry relative="1" as="geometry">
            <mxPoint x="335" y="662.5" as="targetPoint" />
            <Array as="points">
              <mxPoint x="75" y="453" />
              <mxPoint x="75" y="816" />
              <mxPoint x="320" y="816" />
            </Array>
            <mxPoint x="330" y="476.25" as="sourcePoint" />
          </mxGeometry>
        </mxCell>
        <mxCell id="Y5n4CIadUk6yGjNhIpUX-40" style="edgeStyle=orthogonalEdgeStyle;rounded=0;orthogonalLoop=1;jettySize=auto;html=1;exitX=1;exitY=0.25;exitDx=0;exitDy=0;fontSize=16;entryX=1;entryY=0.75;entryDx=0;entryDy=0;strokeColor=#FF0000;endArrow=none;endFill=0;startArrow=classic;startFill=1;" parent="1" source="Y5n4CIadUk6yGjNhIpUX-3" target="Q6ICdtqjvSAJJMZQYe2n-8" edge="1">
          <mxGeometry relative="1" as="geometry">
            <mxPoint x="494" y="476.25" as="targetPoint" />
            <Array as="points">
              <mxPoint x="735" y="815" />
              <mxPoint x="735" y="453" />
              <mxPoint x="484" y="453" />
            </Array>
            <mxPoint x="495" y="662.5" as="sourcePoint" />
          </mxGeometry>
        </mxCell>
        <mxCell id="Y5n4CIadUk6yGjNhIpUX-41" value="1PPS" style="text;html=1;align=center;verticalAlign=middle;resizable=0;points=[];autosize=1;fontColor=#FF0000;" parent="1" vertex="1">
          <mxGeometry x="490" y="798" width="50" height="20" as="geometry" />
        </mxCell>
        <mxCell id="Y5n4CIadUk6yGjNhIpUX-42" value="" style="whiteSpace=wrap;html=1;dashed=1;strokeWidth=2;fillColor=none;" parent="1" vertex="1">
          <mxGeometry x="90" y="999" width="630" height="130" as="geometry" />
        </mxCell>
        <mxCell id="Y5n4CIadUk6yGjNhIpUX-43" style="edgeStyle=orthogonalEdgeStyle;rounded=0;orthogonalLoop=1;jettySize=auto;html=1;exitX=1;exitY=0.5;exitDx=0;exitDy=0;entryX=0;entryY=0.5;entryDx=0;entryDy=0;startArrow=none;startFill=0;endArrow=none;endFill=0;strokeColor=#000000;dashed=1;strokeWidth=4;" parent="1" source="Y5n4CIadUk6yGjNhIpUX-44" target="Y5n4CIadUk6yGjNhIpUX-46" edge="1">
          <mxGeometry relative="1" as="geometry" />
        </mxCell>
        <mxCell id="Y5n4CIadUk6yGjNhIpUX-44" value="RFSoC 7" style="rounded=1;whiteSpace=wrap;html=1;fillColor=#ffe6cc;strokeColor=#d79b00;" parent="1" vertex="1">
          <mxGeometry x="120" y="1069" width="110" height="40" as="geometry" />
        </mxCell>
        <mxCell id="Y5n4CIadUk6yGjNhIpUX-45" value="Analog Rack C" style="text;html=1;align=left;verticalAlign=middle;resizable=0;points=[];autosize=1;fontSize=16;" parent="1" vertex="1">
          <mxGeometry x="90" y="979" width="120" height="20" as="geometry" />
        </mxCell>
        <mxCell id="Y5n4CIadUk6yGjNhIpUX-46" value="RFSoC 1" style="rounded=1;whiteSpace=wrap;html=1;fillColor=#ffe6cc;strokeColor=#d79b00;" parent="1" vertex="1">
          <mxGeometry x="580" y="1069" width="110" height="40" as="geometry" />
        </mxCell>
        <mxCell id="Y5n4CIadUk6yGjNhIpUX-47" value="10MHz" style="text;html=1;align=center;verticalAlign=middle;resizable=0;points=[];autosize=1;fontColor=#0000FF;" parent="1" vertex="1">
          <mxGeometry x="265" y="1004" width="50" height="20" as="geometry" />
        </mxCell>
        <mxCell id="Y5n4CIadUk6yGjNhIpUX-48" value="Rack-Distribution&lt;br&gt;1PPS &amp;amp;10MHz&lt;br&gt;&quot;SRS FS735/13&quot;" style="rounded=1;whiteSpace=wrap;html=1;fillColor=#dae8fc;strokeColor=#6c8ebf;" parent="1" vertex="1">
          <mxGeometry x="325" y="1009" width="160" height="50" as="geometry" />
        </mxCell>
        <mxCell id="Y5n4CIadUk6yGjNhIpUX-49" style="edgeStyle=orthogonalEdgeStyle;rounded=0;orthogonalLoop=1;jettySize=auto;html=1;exitX=1;exitY=0.75;exitDx=0;exitDy=0;fontSize=16;strokeColor=#FF0000;entryX=0.25;entryY=0;entryDx=0;entryDy=0;" parent="1" source="Y5n4CIadUk6yGjNhIpUX-48" target="Y5n4CIadUk6yGjNhIpUX-46" edge="1">
          <mxGeometry relative="1" as="geometry">
            <Array as="points">
              <mxPoint x="494" y="1046" />
              <mxPoint x="608" y="1046" />
            </Array>
            <mxPoint x="494" y="784" as="sourcePoint" />
            <mxPoint x="600" y="1199" as="targetPoint" />
          </mxGeometry>
        </mxCell>
        <mxCell id="Y5n4CIadUk6yGjNhIpUX-50" style="edgeStyle=orthogonalEdgeStyle;rounded=0;orthogonalLoop=1;jettySize=auto;html=1;exitX=1;exitY=0.5;exitDx=0;exitDy=0;entryX=0.75;entryY=0;entryDx=0;entryDy=0;strokeColor=#0000FF;" parent="1" source="Y5n4CIadUk6yGjNhIpUX-48" target="Y5n4CIadUk6yGjNhIpUX-46" edge="1">
          <mxGeometry relative="1" as="geometry">
            <mxPoint x="395" y="620" as="targetPoint" />
            <Array as="points">
              <mxPoint x="663" y="1034" />
              <mxPoint x="663" y="1069" />
            </Array>
            <mxPoint x="325" y="620" as="sourcePoint" />
          </mxGeometry>
        </mxCell>
        <mxCell id="Y5n4CIadUk6yGjNhIpUX-51" style="edgeStyle=orthogonalEdgeStyle;rounded=0;orthogonalLoop=1;jettySize=auto;html=1;exitX=0;exitY=0.75;exitDx=0;exitDy=0;fontSize=16;strokeColor=#FF0000;entryX=0.75;entryY=0;entryDx=0;entryDy=0;" parent="1" source="Y5n4CIadUk6yGjNhIpUX-48" target="Y5n4CIadUk6yGjNhIpUX-44" edge="1">
          <mxGeometry relative="1" as="geometry">
            <Array as="points">
              <mxPoint x="203" y="1046" />
              <mxPoint x="203" y="1059" />
            </Array>
            <mxPoint x="167.74" y="1029.47" as="sourcePoint" />
            <mxPoint x="290.24" y="1051.97" as="targetPoint" />
          </mxGeometry>
        </mxCell>
        <mxCell id="Y5n4CIadUk6yGjNhIpUX-52" style="edgeStyle=orthogonalEdgeStyle;rounded=0;orthogonalLoop=1;jettySize=auto;html=1;exitX=0;exitY=0.5;exitDx=0;exitDy=0;entryX=0.25;entryY=0;entryDx=0;entryDy=0;strokeColor=#0000FF;" parent="1" source="Y5n4CIadUk6yGjNhIpUX-48" target="Y5n4CIadUk6yGjNhIpUX-44" edge="1">
          <mxGeometry relative="1" as="geometry">
            <mxPoint x="309.5" y="1069" as="targetPoint" />
            <Array as="points">
              <mxPoint x="148" y="1034" />
            </Array>
            <mxPoint x="132" y="1034" as="sourcePoint" />
          </mxGeometry>
        </mxCell>
        <mxCell id="Y5n4CIadUk6yGjNhIpUX-53" value="1PPS" style="text;html=1;align=center;verticalAlign=middle;resizable=0;points=[];autosize=1;fontColor=#FF0000;" parent="1" vertex="1">
          <mxGeometry x="490" y="1004" width="50" height="20" as="geometry" />
        </mxCell>
        <mxCell id="Y5n4CIadUk6yGjNhIpUX-54" style="edgeStyle=orthogonalEdgeStyle;rounded=0;orthogonalLoop=1;jettySize=auto;html=1;exitX=0.5;exitY=1;exitDx=0;exitDy=0;entryX=0.5;entryY=0;entryDx=0;entryDy=0;startArrow=none;startFill=0;endArrow=none;endFill=0;strokeColor=#000000;dashed=1;strokeWidth=4;" parent="1" source="p2Ja1tfODRt-xbFQZl6X-28" target="Y5n4CIadUk6yGjNhIpUX-42" edge="1">
          <mxGeometry relative="1" as="geometry">
            <mxPoint x="240" y="893" as="sourcePoint" />
            <mxPoint x="590" y="893" as="targetPoint" />
          </mxGeometry>
        </mxCell>
        <mxCell id="Y5n4CIadUk6yGjNhIpUX-55" style="edgeStyle=orthogonalEdgeStyle;rounded=0;orthogonalLoop=1;jettySize=auto;html=1;exitX=0;exitY=0.5;exitDx=0;exitDy=0;strokeColor=#0000FF;entryX=0;entryY=0.25;entryDx=0;entryDy=0;" parent="1" source="Q6ICdtqjvSAJJMZQYe2n-8" target="Y5n4CIadUk6yGjNhIpUX-48" edge="1">
          <mxGeometry relative="1" as="geometry">
            <mxPoint x="80" y="940" as="targetPoint" />
            <Array as="points">
              <mxPoint x="70" y="425" />
              <mxPoint x="70" y="1021" />
            </Array>
            <mxPoint x="330" y="476.25" as="sourcePoint" />
          </mxGeometry>
        </mxCell>
        <mxCell id="Y5n4CIadUk6yGjNhIpUX-56" style="edgeStyle=orthogonalEdgeStyle;rounded=0;orthogonalLoop=1;jettySize=auto;html=1;exitX=1;exitY=0.25;exitDx=0;exitDy=0;fontSize=16;entryX=1;entryY=0.5;entryDx=0;entryDy=0;strokeColor=#FF0000;endArrow=none;endFill=0;startArrow=classic;startFill=1;" parent="1" source="Y5n4CIadUk6yGjNhIpUX-48" target="Q6ICdtqjvSAJJMZQYe2n-8" edge="1">
          <mxGeometry relative="1" as="geometry">
            <mxPoint x="494" y="462.5" as="targetPoint" />
            <Array as="points">
              <mxPoint x="740" y="1021" />
              <mxPoint x="740" y="425" />
            </Array>
            <mxPoint x="495" y="825.5" as="sourcePoint" />
          </mxGeometry>
        </mxCell>
      </root>
    </mxGraphModel>
  </diagram>
</mxfile>
